<svg width="37" height="25" viewBox="0 0 37 25" fill="none" xmlns="http://www.w3.org/2000/svg">
<path d="M0 0H24.933C31.5974 0 37 5.4026 37 12.067C37 18.7315 31.5974 24.1341 24.933 24.1341H0V0Z" fill="#F6D6B1"/>
<path d="M4.91302 8.00668L4.88721 8.01112V12.3381V16.6641H9.27055H13.6539V12.3381C13.6539 8.40388 13.6528 8.01223 13.6359 8.00557C13.6157 7.99781 4.95231 7.99891 4.91302 8.00668ZM9.62414 9.25597C9.66006 9.27372 9.67578 9.3292 9.6971 9.52225C9.7072 9.60879 9.71618 9.6798 9.71843 9.68202C9.71955 9.68424 9.76108 9.66759 9.81047 9.6454C9.98109 9.56774 10.1955 9.48564 10.2718 9.46789C10.3717 9.4457 10.5266 9.4457 10.6086 9.46899C10.7242 9.50228 11.162 9.73749 11.2293 9.80295C11.2428 9.81627 11.2383 9.81849 11.1889 9.81849C11.0205 9.81849 10.7994 9.92611 10.5199 10.1425C10.4121 10.2257 10.4099 10.229 10.4402 10.2357C10.915 10.3433 11.2282 10.4498 11.5829 10.624C11.8242 10.7427 11.9432 10.817 11.9735 10.8703C12.0184 10.9468 12.2295 11.5959 12.2149 11.6114C12.2115 11.6136 12.1542 11.5903 12.0869 11.5593C11.7535 11.404 11.3988 11.283 10.9981 11.1876C10.8589 11.1543 10.576 11.0944 10.5592 11.0944C10.5558 11.0944 10.5929 11.1377 10.64 11.1909C10.8768 11.4572 11.1451 11.7656 11.2394 11.881C11.492 12.1884 11.8287 12.6555 12.0521 13.0105L12.1385 13.1459L12.0252 13.3378C11.8703 13.6007 11.5952 14.0457 11.5885 14.0457C11.5851 14.0457 11.5256 13.9569 11.4561 13.8482C11.089 13.279 10.6063 12.6555 10.0069 11.9787L9.8318 11.7812L9.82843 13.6019L9.82619 15.4214H9.27617H8.72614L8.7239 13.603L8.72053 11.7856L8.54093 11.9853C7.92244 12.6743 7.4667 13.2612 7.05924 13.8937C6.97954 14.0168 6.95821 14.0445 6.94699 14.0323C6.91443 13.9979 6.4138 13.168 6.4138 13.1492C6.4138 13.1337 6.57544 12.8785 6.718 12.6688C6.98291 12.2793 7.34211 11.8233 7.71477 11.4017C7.81131 11.293 7.90897 11.1821 7.93366 11.1543C7.9606 11.1244 7.9707 11.1055 7.9606 11.1055C7.95162 11.1055 7.8708 11.1199 7.78212 11.1377C7.27476 11.2397 6.8628 11.3718 6.47778 11.5515C6.39921 11.5892 6.33298 11.617 6.32961 11.6148C6.31165 11.5959 6.53728 10.9124 6.5833 10.8481C6.62483 10.7915 6.96944 10.6062 7.24108 10.4964C7.43303 10.4187 7.69906 10.3344 7.92805 10.2778C8.03469 10.2512 8.12449 10.2279 8.12673 10.2268C8.13122 10.2212 7.93254 10.0681 7.83488 10.0027C7.67998 9.89837 7.47456 9.81849 7.36007 9.81849C7.32639 9.81849 7.31292 9.81405 7.31853 9.80628C7.33537 9.77854 7.57446 9.63431 7.73273 9.55664C7.92805 9.46123 8.02571 9.43571 8.14469 9.4468C8.27714 9.45901 8.44103 9.51337 8.70931 9.6332C8.77104 9.66094 8.8238 9.68202 8.82605 9.67869C8.82941 9.67647 8.84064 9.59881 8.85074 9.50672C8.87431 9.31256 8.88554 9.2715 8.92034 9.25486C8.95738 9.23711 9.58822 9.23822 9.62414 9.25597Z" fill="#414141"/>
<path d="M16.0965 8.01657C15.6475 8.08536 15.3343 8.29616 15.1581 8.64787C15.0323 8.89751 14.9931 9.24145 15.057 9.5155C15.0975 9.68747 15.1783 9.82615 15.3107 9.95264C15.4488 10.0836 15.5779 10.1512 15.9045 10.2622C16.3266 10.4053 16.4635 10.4652 16.5365 10.5373C16.6959 10.6949 16.6532 10.9456 16.4444 11.0666C16.3311 11.132 16.0953 11.1442 15.9056 11.0954C15.7418 11.0521 15.542 10.9467 15.368 10.8081C15.3253 10.7759 15.2894 10.7504 15.2883 10.7526C15.277 10.7659 14.8774 11.5192 14.8774 11.5248C14.8774 11.537 15.0301 11.6313 15.1468 11.6923C15.4937 11.8732 15.8989 11.9619 16.2974 11.9453C17.0113 11.9153 17.4828 11.5847 17.6298 11.0089C17.6523 10.9223 17.6556 10.8835 17.6545 10.6782C17.6545 10.4164 17.641 10.3443 17.5658 10.1856C17.4087 9.85944 17.1393 9.68303 16.4994 9.48998C16.1762 9.39234 16.0448 9.28028 16.0583 9.11164C16.0729 8.92303 16.2379 8.80875 16.495 8.80875C16.6667 8.80875 16.8822 8.8853 17.0427 9.0018C17.082 9.03065 17.1179 9.05062 17.1224 9.04507C17.1348 9.03287 17.5041 8.31502 17.5041 8.30504C17.5041 8.29062 17.274 8.18965 17.1269 8.13972C16.77 8.01879 16.3816 7.97219 16.0965 8.01657Z" fill="#414141"/>
<path d="M26.2853 8.09521C26.2741 8.09965 26.2708 8.48576 26.2708 9.9747V11.8486H27.0094C27.776 11.8486 27.9354 11.842 28.106 11.802C28.5921 11.69 28.9838 11.4226 29.2622 11.011C29.5686 10.5572 29.6596 10.0901 29.5417 9.56418C29.4586 9.19361 29.306 8.92179 29.0332 8.65329C28.9479 8.57008 28.8345 8.47133 28.7773 8.43139C28.4877 8.23057 28.1936 8.12406 27.8591 8.09854C27.7143 8.08745 26.3112 8.08412 26.2853 8.09521ZM27.7973 8.95174C28.0488 9.01499 28.2811 9.1803 28.4046 9.38556C28.6796 9.84489 28.5786 10.5039 28.188 10.7968C27.9781 10.9544 27.767 11.0165 27.437 11.0165H27.2473V9.96693V8.91735L27.4752 8.9229C27.6559 8.92734 27.721 8.93288 27.7973 8.95174Z" fill="#414141"/>
<path d="M19.3395 8.1174C19.3069 8.19951 17.9162 11.8142 17.9117 11.8287C17.9061 11.8475 17.9364 11.8486 18.428 11.8486H18.95L18.9937 11.7233C19.0184 11.6556 19.0701 11.508 19.1094 11.396L19.1801 11.194H19.8884H20.5967L20.7078 11.5158L20.8178 11.8375H21.3431H21.8685L21.7989 11.6567C21.7607 11.5579 21.4363 10.7169 21.0782 9.7883L20.4283 8.09854H19.8884C19.3833 8.09854 19.3473 8.09965 19.3395 8.1174ZM20.1129 9.83046L20.3306 10.4451L19.8929 10.4485C19.6515 10.4496 19.4517 10.4485 19.4495 10.4462C19.4461 10.444 19.5382 10.1766 19.6527 9.85265C19.8929 9.17697 19.8828 9.2036 19.8895 9.21026C19.8929 9.21248 19.9928 9.49207 20.1129 9.83046Z" fill="#414141"/>
<path d="M22.1591 8.10629C22.1468 8.11739 22.1501 10.3064 22.1625 10.4839C22.2074 11.1297 22.433 11.5413 22.864 11.7587C23.0156 11.8353 23.2333 11.8985 23.4534 11.9285C23.6184 11.9507 24.0584 11.9474 24.211 11.923C24.5826 11.8619 24.8284 11.7565 25.0305 11.5701C25.2437 11.3726 25.3661 11.1075 25.4357 10.6947C25.4536 10.5893 25.4559 10.4562 25.4593 9.33783L25.4637 8.09853H24.9743H24.486V9.15477C24.486 10.2576 24.4782 10.4995 24.4411 10.6437C24.3873 10.8545 24.2526 11.0054 24.0674 11.0631C23.9686 11.0942 23.7351 11.103 23.6217 11.0786C23.3927 11.0309 23.2434 10.8878 23.1851 10.6592C23.1435 10.4984 23.1391 10.3697 23.1391 9.2169V8.09853H22.653C22.3847 8.09853 22.1625 8.10186 22.1591 8.10629Z" fill="#414141"/>
<path d="M30.2242 9.97044L30.2275 11.8433H30.7158H31.2041L31.2075 9.97044L31.2097 8.09872H30.7158H30.2219L30.2242 9.97044Z" fill="#414141"/>
<path d="M15.5115 12.9361C15.5082 12.9427 15.3634 13.7704 15.1905 14.7756C15.0188 15.7808 14.8751 16.6196 14.8717 16.6384L14.865 16.675H15.3544C15.6227 16.675 15.8427 16.6728 15.8427 16.6695C15.8427 16.6651 15.992 15.6698 16.1155 14.8577C16.1413 14.6857 16.1671 14.5437 16.1727 14.5437C16.1806 14.5437 16.9966 16.5918 17.0134 16.6551C17.0191 16.6728 17.0381 16.675 17.2144 16.675H17.4097L17.4501 16.5719C17.5107 16.4199 18.274 14.5848 18.2897 14.557C18.2965 14.5426 18.3043 14.5337 18.3066 14.5359C18.3099 14.5393 18.4985 15.7686 18.613 16.5364L18.6332 16.6695L19.1181 16.6728L19.603 16.675V16.6484C19.603 16.6273 19.1832 14.172 18.9924 13.0747L18.9677 12.9305H18.4817H17.9956L17.6218 13.918C17.4164 14.4605 17.2447 14.9032 17.2391 14.901C17.2335 14.8976 17.0595 14.4527 16.8541 13.9102L16.478 12.925H15.9987C15.6878 12.925 15.516 12.9294 15.5115 12.9361Z" fill="#414141"/>
<path d="M21.591 12.9494C21.4035 13.4253 20.1643 16.6551 20.1643 16.6673C20.1643 16.6717 20.3978 16.6739 20.684 16.6728L21.2026 16.6695L21.3149 16.3455L21.4271 16.0204H22.1343H22.8415L22.9537 16.3477L23.066 16.675H23.5846C23.9 16.675 24.1043 16.6706 24.1043 16.6651C24.1043 16.6595 23.8382 15.9639 23.5138 15.1195C23.1883 14.2752 22.8662 13.4375 22.7977 13.2578L22.672 12.9305L22.1365 12.9272L21.6011 12.925L21.591 12.9494ZM22.3599 14.6646L22.5754 15.2715L22.1365 15.2749C21.8963 15.276 21.6976 15.276 21.6954 15.2738C21.6931 15.2715 22.0849 14.1576 22.1231 14.0578C22.1264 14.0489 22.1332 14.0455 22.1377 14.05C22.141 14.0544 22.242 14.3307 22.3599 14.6646Z" fill="#414141"/>
<path d="M24.8283 12.9382C24.8249 12.946 24.8238 13.7892 24.8249 14.811L24.8283 16.6695L25.5915 16.6728C26.3077 16.675 26.3649 16.6739 26.5142 16.6528C26.9385 16.5929 27.2831 16.4209 27.5896 16.1158C27.8803 15.8262 28.0577 15.4756 28.1239 15.0607C28.1318 15.0119 28.1385 14.8943 28.1385 14.8C28.1385 14.6147 28.1261 14.5137 28.0812 14.3395C27.9162 13.6882 27.3909 13.1623 26.7309 12.9859C26.5165 12.9293 26.4345 12.9249 25.6017 12.9249C24.9977 12.9249 24.8316 12.9282 24.8283 12.9382ZM26.1887 13.7581C26.6422 13.8081 26.9677 14.0766 27.0777 14.4926C27.1855 14.8998 27.08 15.317 26.8061 15.5733C26.6703 15.6986 26.5053 15.7807 26.3077 15.8196C26.219 15.8373 26.1517 15.8429 26.0024 15.8429H25.8104V14.8022C25.8104 14.2297 25.8138 13.757 25.8183 13.7537C25.8295 13.7415 26.0686 13.7448 26.1887 13.7581Z" fill="#414141"/>
<path d="M29.0544 14.8V16.675L30.1298 16.6728L31.204 16.6695V16.259V15.8485L30.6237 15.8451L30.0422 15.8429V15.5212V15.1994H30.5923H31.1423V14.7889V14.3784H30.5923H30.0422V14.0622V13.746H30.6259H31.2096L31.2074 13.3377L31.204 12.9305L30.1298 12.9272L29.0544 12.925V14.8Z" fill="#414141"/>
</svg>
